<mxfile host="app.diagrams.net" modified="2023-05-11T13:38:09.012Z" agent="Mozilla/5.0 (Windows NT 10.0; Win64; x64) AppleWebKit/537.36 (KHTML, like Gecko) Chrome/112.0.0.0 Safari/537.36" etag="5a27YVpebPdc8zT_yUBb" version="21.2.9" type="github">
  <diagram id="prtHgNgQTEPvFCAcTncT" name="Page-1">
    <mxGraphModel dx="1050" dy="581" grid="0" gridSize="10" guides="1" tooltips="1" connect="1" arrows="1" fold="1" page="1" pageScale="1" pageWidth="827" pageHeight="1169" math="0" shadow="0">
      <root>
        <mxCell id="0" />
        <mxCell id="1" parent="0" />
        <mxCell id="A7guZHJaKLFVKY_fmd2v-1" value="领导" style="shape=actor;whiteSpace=wrap;html=1;" vertex="1" parent="1">
          <mxGeometry x="10" y="190" width="70" height="110" as="geometry" />
        </mxCell>
        <mxCell id="A7guZHJaKLFVKY_fmd2v-3" value="" style="rounded=0;whiteSpace=wrap;html=1;align=left;" vertex="1" parent="1">
          <mxGeometry x="130" y="40" width="330" height="520" as="geometry" />
        </mxCell>
        <mxCell id="A7guZHJaKLFVKY_fmd2v-4" value="社区矫正OA系统" style="text;html=1;strokeColor=none;fillColor=none;align=center;verticalAlign=middle;whiteSpace=wrap;rounded=0;" vertex="1" parent="1">
          <mxGeometry x="160" y="40" width="100" height="30" as="geometry" />
        </mxCell>
        <mxCell id="A7guZHJaKLFVKY_fmd2v-5" value="普通职员" style="shape=actor;whiteSpace=wrap;html=1;" vertex="1" parent="1">
          <mxGeometry x="520" y="200" width="70" height="110" as="geometry" />
        </mxCell>
        <mxCell id="A7guZHJaKLFVKY_fmd2v-6" value="权限管理" style="ellipse;whiteSpace=wrap;html=1;" vertex="1" parent="1">
          <mxGeometry x="170" y="200" width="80" height="35" as="geometry" />
        </mxCell>
        <mxCell id="A7guZHJaKLFVKY_fmd2v-8" value="用户管理" style="ellipse;whiteSpace=wrap;html=1;" vertex="1" parent="1">
          <mxGeometry x="170" y="240" width="80" height="35" as="geometry" />
        </mxCell>
        <mxCell id="A7guZHJaKLFVKY_fmd2v-9" value="角色管理" style="ellipse;whiteSpace=wrap;html=1;" vertex="1" parent="1">
          <mxGeometry x="170" y="280" width="80" height="35" as="geometry" />
        </mxCell>
        <mxCell id="A7guZHJaKLFVKY_fmd2v-10" value="用户管理" style="ellipse;whiteSpace=wrap;html=1;" vertex="1" parent="1">
          <mxGeometry x="170" y="320" width="80" height="35" as="geometry" />
        </mxCell>
        <mxCell id="A7guZHJaKLFVKY_fmd2v-12" value="文档管理" style="ellipse;whiteSpace=wrap;html=1;" vertex="1" parent="1">
          <mxGeometry x="250" y="510" width="80" height="35" as="geometry" />
        </mxCell>
        <mxCell id="A7guZHJaKLFVKY_fmd2v-15" value="公告管理" style="ellipse;whiteSpace=wrap;html=1;" vertex="1" parent="1">
          <mxGeometry x="170" y="365" width="80" height="35" as="geometry" />
        </mxCell>
        <mxCell id="A7guZHJaKLFVKY_fmd2v-16" value="收公告" style="ellipse;whiteSpace=wrap;html=1;" vertex="1" parent="1">
          <mxGeometry x="300" y="360" width="80" height="35" as="geometry" />
        </mxCell>
        <mxCell id="A7guZHJaKLFVKY_fmd2v-18" value="消息管理" style="ellipse;whiteSpace=wrap;html=1;" vertex="1" parent="1">
          <mxGeometry x="170" y="410" width="80" height="35" as="geometry" />
        </mxCell>
        <mxCell id="A7guZHJaKLFVKY_fmd2v-19" value="收消息" style="ellipse;whiteSpace=wrap;html=1;" vertex="1" parent="1">
          <mxGeometry x="300" y="410" width="80" height="35" as="geometry" />
        </mxCell>
        <mxCell id="A7guZHJaKLFVKY_fmd2v-20" value="收发文管理" style="ellipse;whiteSpace=wrap;html=1;" vertex="1" parent="1">
          <mxGeometry x="240" y="70" width="80" height="35" as="geometry" />
        </mxCell>
        <mxCell id="A7guZHJaKLFVKY_fmd2v-22" value="发文审批" style="ellipse;whiteSpace=wrap;html=1;" vertex="1" parent="1">
          <mxGeometry x="170" y="155" width="80" height="35" as="geometry" />
        </mxCell>
        <mxCell id="A7guZHJaKLFVKY_fmd2v-31" value="" style="endArrow=classic;html=1;rounded=0;entryX=1;entryY=0;entryDx=0;entryDy=0;exitX=0.5;exitY=1;exitDx=0;exitDy=0;" edge="1" parent="1" source="A7guZHJaKLFVKY_fmd2v-20" target="A7guZHJaKLFVKY_fmd2v-22">
          <mxGeometry width="50" height="50" relative="1" as="geometry">
            <mxPoint x="390" y="310" as="sourcePoint" />
            <mxPoint x="440" y="260" as="targetPoint" />
            <Array as="points" />
          </mxGeometry>
        </mxCell>
        <mxCell id="A7guZHJaKLFVKY_fmd2v-32" value="包含" style="text;html=1;strokeColor=none;fillColor=none;align=center;verticalAlign=middle;whiteSpace=wrap;rounded=0;" vertex="1" parent="1">
          <mxGeometry x="240" y="110" width="60" height="30" as="geometry" />
        </mxCell>
        <mxCell id="A7guZHJaKLFVKY_fmd2v-33" value="" style="endArrow=classic;html=1;rounded=0;exitX=1;exitY=0.5;exitDx=0;exitDy=0;entryX=0;entryY=0.5;entryDx=0;entryDy=0;" edge="1" parent="1" source="A7guZHJaKLFVKY_fmd2v-15" target="A7guZHJaKLFVKY_fmd2v-16">
          <mxGeometry width="50" height="50" relative="1" as="geometry">
            <mxPoint x="390" y="310" as="sourcePoint" />
            <mxPoint x="440" y="260" as="targetPoint" />
          </mxGeometry>
        </mxCell>
        <mxCell id="A7guZHJaKLFVKY_fmd2v-34" value="包含" style="text;html=1;strokeColor=none;fillColor=none;align=center;verticalAlign=middle;whiteSpace=wrap;rounded=0;" vertex="1" parent="1">
          <mxGeometry x="240" y="355" width="60" height="30" as="geometry" />
        </mxCell>
        <mxCell id="A7guZHJaKLFVKY_fmd2v-37" value="包含" style="text;html=1;strokeColor=none;fillColor=none;align=center;verticalAlign=middle;whiteSpace=wrap;rounded=0;" vertex="1" parent="1">
          <mxGeometry x="240" y="400" width="60" height="30" as="geometry" />
        </mxCell>
        <mxCell id="A7guZHJaKLFVKY_fmd2v-38" value="" style="endArrow=classic;html=1;rounded=0;exitX=1;exitY=0.5;exitDx=0;exitDy=0;entryX=0;entryY=0.5;entryDx=0;entryDy=0;" edge="1" parent="1" source="A7guZHJaKLFVKY_fmd2v-18" target="A7guZHJaKLFVKY_fmd2v-19">
          <mxGeometry width="50" height="50" relative="1" as="geometry">
            <mxPoint x="390" y="310" as="sourcePoint" />
            <mxPoint x="440" y="260" as="targetPoint" />
          </mxGeometry>
        </mxCell>
        <mxCell id="A7guZHJaKLFVKY_fmd2v-39" value="" style="endArrow=none;html=1;rounded=0;exitX=0.9;exitY=0.5;exitDx=0;exitDy=0;exitPerimeter=0;entryX=0;entryY=0;entryDx=0;entryDy=0;" edge="1" parent="1" source="A7guZHJaKLFVKY_fmd2v-1" target="A7guZHJaKLFVKY_fmd2v-20">
          <mxGeometry width="50" height="50" relative="1" as="geometry">
            <mxPoint x="390" y="310" as="sourcePoint" />
            <mxPoint x="440" y="260" as="targetPoint" />
          </mxGeometry>
        </mxCell>
        <mxCell id="A7guZHJaKLFVKY_fmd2v-41" value="" style="endArrow=none;html=1;rounded=0;exitX=0.937;exitY=0.565;exitDx=0;exitDy=0;exitPerimeter=0;entryX=0;entryY=0.5;entryDx=0;entryDy=0;" edge="1" parent="1" source="A7guZHJaKLFVKY_fmd2v-1" target="A7guZHJaKLFVKY_fmd2v-22">
          <mxGeometry width="50" height="50" relative="1" as="geometry">
            <mxPoint x="390" y="310" as="sourcePoint" />
            <mxPoint x="440" y="260" as="targetPoint" />
          </mxGeometry>
        </mxCell>
        <mxCell id="A7guZHJaKLFVKY_fmd2v-42" value="" style="endArrow=none;html=1;rounded=0;exitX=0.926;exitY=0.587;exitDx=0;exitDy=0;exitPerimeter=0;entryX=0;entryY=0.5;entryDx=0;entryDy=0;" edge="1" parent="1" source="A7guZHJaKLFVKY_fmd2v-1" target="A7guZHJaKLFVKY_fmd2v-6">
          <mxGeometry width="50" height="50" relative="1" as="geometry">
            <mxPoint x="390" y="310" as="sourcePoint" />
            <mxPoint x="440" y="260" as="targetPoint" />
          </mxGeometry>
        </mxCell>
        <mxCell id="A7guZHJaKLFVKY_fmd2v-43" value="" style="endArrow=none;html=1;rounded=0;exitX=1.006;exitY=0.631;exitDx=0;exitDy=0;exitPerimeter=0;" edge="1" parent="1" source="A7guZHJaKLFVKY_fmd2v-1">
          <mxGeometry width="50" height="50" relative="1" as="geometry">
            <mxPoint x="390" y="310" as="sourcePoint" />
            <mxPoint x="170" y="260" as="targetPoint" />
          </mxGeometry>
        </mxCell>
        <mxCell id="A7guZHJaKLFVKY_fmd2v-44" value="" style="endArrow=none;html=1;rounded=0;exitX=1.006;exitY=0.653;exitDx=0;exitDy=0;exitPerimeter=0;" edge="1" parent="1" source="A7guZHJaKLFVKY_fmd2v-1" target="A7guZHJaKLFVKY_fmd2v-9">
          <mxGeometry width="50" height="50" relative="1" as="geometry">
            <mxPoint x="390" y="310" as="sourcePoint" />
            <mxPoint x="440" y="260" as="targetPoint" />
          </mxGeometry>
        </mxCell>
        <mxCell id="A7guZHJaKLFVKY_fmd2v-45" value="" style="endArrow=none;html=1;rounded=0;exitX=1;exitY=0.75;exitDx=0;exitDy=0;entryX=0;entryY=0;entryDx=0;entryDy=0;" edge="1" parent="1" source="A7guZHJaKLFVKY_fmd2v-1" target="A7guZHJaKLFVKY_fmd2v-10">
          <mxGeometry width="50" height="50" relative="1" as="geometry">
            <mxPoint x="390" y="310" as="sourcePoint" />
            <mxPoint x="440" y="260" as="targetPoint" />
          </mxGeometry>
        </mxCell>
        <mxCell id="A7guZHJaKLFVKY_fmd2v-46" value="" style="endArrow=none;html=1;rounded=0;exitX=0.971;exitY=0.842;exitDx=0;exitDy=0;exitPerimeter=0;entryX=0;entryY=0.5;entryDx=0;entryDy=0;" edge="1" parent="1" source="A7guZHJaKLFVKY_fmd2v-1" target="A7guZHJaKLFVKY_fmd2v-15">
          <mxGeometry width="50" height="50" relative="1" as="geometry">
            <mxPoint x="390" y="310" as="sourcePoint" />
            <mxPoint x="440" y="260" as="targetPoint" />
          </mxGeometry>
        </mxCell>
        <mxCell id="A7guZHJaKLFVKY_fmd2v-47" value="" style="endArrow=none;html=1;rounded=0;exitX=0.994;exitY=0.958;exitDx=0;exitDy=0;exitPerimeter=0;entryX=0;entryY=0.5;entryDx=0;entryDy=0;" edge="1" parent="1" source="A7guZHJaKLFVKY_fmd2v-1" target="A7guZHJaKLFVKY_fmd2v-18">
          <mxGeometry width="50" height="50" relative="1" as="geometry">
            <mxPoint x="390" y="310" as="sourcePoint" />
            <mxPoint x="440" y="260" as="targetPoint" />
          </mxGeometry>
        </mxCell>
        <mxCell id="A7guZHJaKLFVKY_fmd2v-48" value="" style="endArrow=none;html=1;rounded=0;exitX=1;exitY=0.5;exitDx=0;exitDy=0;entryX=0.1;entryY=0.5;entryDx=0;entryDy=0;entryPerimeter=0;" edge="1" parent="1" source="A7guZHJaKLFVKY_fmd2v-20" target="A7guZHJaKLFVKY_fmd2v-5">
          <mxGeometry width="50" height="50" relative="1" as="geometry">
            <mxPoint x="390" y="310" as="sourcePoint" />
            <mxPoint x="440" y="260" as="targetPoint" />
          </mxGeometry>
        </mxCell>
        <mxCell id="A7guZHJaKLFVKY_fmd2v-49" value="" style="endArrow=none;html=1;rounded=0;" edge="1" parent="1" source="A7guZHJaKLFVKY_fmd2v-16" target="A7guZHJaKLFVKY_fmd2v-5">
          <mxGeometry width="50" height="50" relative="1" as="geometry">
            <mxPoint x="390" y="310" as="sourcePoint" />
            <mxPoint x="440" y="260" as="targetPoint" />
          </mxGeometry>
        </mxCell>
        <mxCell id="A7guZHJaKLFVKY_fmd2v-50" value="" style="endArrow=none;html=1;rounded=0;entryX=0.04;entryY=0.824;entryDx=0;entryDy=0;entryPerimeter=0;exitX=1;exitY=0.5;exitDx=0;exitDy=0;" edge="1" parent="1" source="A7guZHJaKLFVKY_fmd2v-19" target="A7guZHJaKLFVKY_fmd2v-5">
          <mxGeometry width="50" height="50" relative="1" as="geometry">
            <mxPoint x="390" y="310" as="sourcePoint" />
            <mxPoint x="440" y="260" as="targetPoint" />
          </mxGeometry>
        </mxCell>
        <mxCell id="A7guZHJaKLFVKY_fmd2v-51" value="" style="endArrow=none;html=1;rounded=0;entryX=-0.017;entryY=0.976;entryDx=0;entryDy=0;entryPerimeter=0;" edge="1" parent="1" source="A7guZHJaKLFVKY_fmd2v-12" target="A7guZHJaKLFVKY_fmd2v-5">
          <mxGeometry width="50" height="50" relative="1" as="geometry">
            <mxPoint x="390" y="310" as="sourcePoint" />
            <mxPoint x="440" y="260" as="targetPoint" />
          </mxGeometry>
        </mxCell>
        <mxCell id="A7guZHJaKLFVKY_fmd2v-53" value="" style="endArrow=none;html=1;rounded=0;exitX=0;exitY=0.5;exitDx=0;exitDy=0;entryX=0.5;entryY=1;entryDx=0;entryDy=0;" edge="1" parent="1" source="A7guZHJaKLFVKY_fmd2v-12" target="A7guZHJaKLFVKY_fmd2v-1">
          <mxGeometry width="50" height="50" relative="1" as="geometry">
            <mxPoint x="390" y="310" as="sourcePoint" />
            <mxPoint x="440" y="260" as="targetPoint" />
          </mxGeometry>
        </mxCell>
      </root>
    </mxGraphModel>
  </diagram>
</mxfile>
